<svg xmlns="http://www.w3.org/2000/svg" xmlns:xlink="http://www.w3.org/1999/xlink" width="32" height="32" viewBox="0 0 32 32"><defs><style>.cls-1{fill:url(#Dégradé_sans_nom_18);}.cls-2{fill:url(#Dégradé_sans_nom_19);}.cls-3{fill:url(#Dégradé_sans_nom_18-2);}.cls-4{fill:url(#Dégradé_sans_nom_19-2);}.cls-5{fill:url(#Dégradé_sans_nom_29);}.cls-6{fill:url(#Dégradé_sans_nom_29-2);}.cls-7{fill:url(#Dégradé_sans_nom_42);}.cls-8{fill:url(#Dégradé_sans_nom_17);}.cls-9{fill:url(#Dégradé_sans_nom_10);}.cls-10{fill:url(#Dégradé_sans_nom_10-2);}.cls-11{fill:url(#Dégradé_sans_nom_17-2);}.cls-12{fill:url(#Dégradé_sans_nom_17-3);}.cls-13{fill:url(#Dégradé_sans_nom_17-4);}.cls-14{fill:url(#Dégradé_sans_nom_10-3);}.cls-15{fill:url(#Dégradé_sans_nom_10-4);}.cls-16{fill:url(#Dégradé_sans_nom_17-5);}.cls-17{fill:url(#Dégradé_sans_nom_10-5);}</style><linearGradient id="Dégradé_sans_nom_18" x1="1" y1="20.1584" x2="15.5639" y2="20.1584" gradientUnits="userSpaceOnUse"><stop offset="0" stop-color="#e5cc72"/><stop offset="0.2404" stop-color="#e2c971"/><stop offset="0.4335" stop-color="#d8c06c"/><stop offset="0.6101" stop-color="#c7b064"/><stop offset="0.7769" stop-color="#af9a59"/><stop offset="0.9355" stop-color="#917f4b"/><stop offset="1" stop-color="#827144"/></linearGradient><linearGradient id="Dégradé_sans_nom_19" x1="16.4367" y1="20.1577" x2="31" y2="20.1577" gradientUnits="userSpaceOnUse"><stop offset="0" stop-color="#827144"/><stop offset="0.0645" stop-color="#917f4b"/><stop offset="0.2231" stop-color="#af9a59"/><stop offset="0.3899" stop-color="#c7b064"/><stop offset="0.5665" stop-color="#d8c06c"/><stop offset="0.7596" stop-color="#e2c971"/><stop offset="1" stop-color="#e5cc72"/></linearGradient><linearGradient id="Dégradé_sans_nom_18-2" x1="2.4584" y1="18.315" x2="13.4979" y2="18.315" xlink:href="#Dégradé_sans_nom_18"/><linearGradient id="Dégradé_sans_nom_19-2" x1="18.503" y1="18.3128" x2="29.5418" y2="18.3128" xlink:href="#Dégradé_sans_nom_19"/><linearGradient id="Dégradé_sans_nom_29" x1="10.6666" y1="18.4067" x2="10.6666" y2="4.7277" gradientUnits="userSpaceOnUse"><stop offset="0" stop-color="#3597f4"/><stop offset="0.0684" stop-color="#39a7f0"/><stop offset="0.2263" stop-color="#40c5e9"/><stop offset="0.3924" stop-color="#45dde3"/><stop offset="0.5683" stop-color="#49eedf"/><stop offset="0.7606" stop-color="#4bf8dd"/><stop offset="1" stop-color="#4cfbdc"/></linearGradient><linearGradient id="Dégradé_sans_nom_29-2" x1="21.3335" y1="18.4067" x2="21.3335" y2="4.7277" xlink:href="#Dégradé_sans_nom_29"/><linearGradient id="Dégradé_sans_nom_42" x1="8.8721" y1="22.0247" x2="8.8721" y2="4.7277" xlink:href="#Dégradé_sans_nom_19"/><linearGradient id="Dégradé_sans_nom_17" x1="23.1293" y1="22.0144" x2="23.1293" y2="4.7277" xlink:href="#Dégradé_sans_nom_19"/><linearGradient id="Dégradé_sans_nom_10" x1="14.0005" y1="10.6186" x2="16.3065" y2="10.6186" gradientUnits="userSpaceOnUse"><stop offset="0" stop-color="#3597f4"/><stop offset="1" stop-color="#4cfbdc"/></linearGradient><linearGradient id="Dégradé_sans_nom_10-2" x1="13.6326" y1="13.9405" x2="14.5309" y2="13.9405" xlink:href="#Dégradé_sans_nom_10"/><linearGradient id="Dégradé_sans_nom_17-2" x1="13.5006" y1="11.9884" x2="16.3692" y2="11.9884" xlink:href="#Dégradé_sans_nom_19"/><linearGradient id="Dégradé_sans_nom_17-3" x1="14.7779" y1="14.7641" x2="17.2212" y2="14.7641" xlink:href="#Dégradé_sans_nom_19"/><linearGradient id="Dégradé_sans_nom_17-4" x1="17.8036" y1="12.148" x2="18.4994" y2="12.148" xlink:href="#Dégradé_sans_nom_19"/><linearGradient id="Dégradé_sans_nom_10-3" x1="14.4551" y1="13.1983" x2="16.3698" y2="13.1983" xlink:href="#Dégradé_sans_nom_10"/><linearGradient id="Dégradé_sans_nom_10-4" x1="16.6483" y1="11.0291" x2="17.9986" y2="11.0291" xlink:href="#Dégradé_sans_nom_10"/><linearGradient id="Dégradé_sans_nom_17-5" x1="15.6066" y1="12.61" x2="17.5445" y2="12.61" xlink:href="#Dégradé_sans_nom_19"/><linearGradient id="Dégradé_sans_nom_10-5" x1="16.7878" y1="13.9406" x2="18.3667" y2="13.9406" xlink:href="#Dégradé_sans_nom_10"/></defs><g id="Logo_300_X_400_px" data-name="Logo 300 X 400 px"><g id="logo_BG_White" data-name="logo BG White"><g id="_2" data-name="2"><path class="cls-1" d="M15.5572,25.5969c-.1118-1.242-1.6213-2.125-3.1537-2.8183-.9544-.4319-1.9178-.79-2.558-1.1157-.1763-.0891-.3623-.1824-.5557-.2794C7.33,20.4,4.5886,19.0074,3.0134,17.153c-1.9968-2.3535-1.7652-4.5569.4225-3.6712-1.3927-.7667-2.122-.4444-2.3442.3412-.532,1.8716,1.3677,4.2282,2.6759,5.4112a18.1049,18.1049,0,0,0,5.8535,3.3715q.3732.1506.7524.303c.467.1885.9412.3829,1.4249.5945.9483.4162,2.7667,1.1517,2.9983,2.2346a1.0587,1.0587,0,0,1-1.8747.8231A1.43,1.43,0,0,0,15.5572,25.5969Z"/><path class="cls-2" d="M30.9091,13.82c-.2253-.7824-.9514-1.1079-2.3473-.338,2.1877-.8857,2.4224,1.3145.4226,3.6711-1.5782,1.8578-4.3268,3.2522-6.287,4.2358-.1895.0952-.3721.1866-.5452.2741-.6369.3239-1.5932.68-2.5423,1.1081-1.5365.6934-3.054,1.5769-3.1663,2.8228a1.4286,1.4286,0,0,0,2.6321.9671,1.0593,1.0593,0,0,1-1.8747-.8231c.2348-1.086,2.05-1.8183,2.9983-2.2346.4832-.2116.9569-.4061,1.4233-.5946q.3751-.1517.7441-.3A18.143,18.143,0,0,0,28.23,19.2344C29.5414,18.0482,31.438,15.6947,30.9091,13.82Z"/></g><g id="_1" data-name="1"><path class="cls-3" d="M12.5906,22.4232q-.1745-.0956-.3453-.19c-1.0964-.6086-2.0673-1.1882-2.9247-1.7367q-.1673-.1071-.329-.2125c-6.9873-4.5606-5.9986-6.8958-4.1536-5.8-2.0142-2.4048-5.7663,1.166,4.3255,6.4343.9236.4821,1.9638.9786,3.1313,1.4859q.5807.2523,1.2031.5081Q13.0307,22.6644,12.5906,22.4232Z"/><path class="cls-4" d="M27.16,14.4835c1.8488-1.0987,2.8381,1.24-4.1644,5.8063q-.1616.1054-.3289.2123c-.8506.5438-1.8125,1.1178-2.8976,1.72q-.1705.0948-.3454.19-.4469.2449-.9205.4958.63-.2586,1.2159-.5137c1.1568-.503,2.1883-.9952,3.1052-1.4735C32.9322,15.65,29.1776,12.0749,27.16,14.4835Z"/></g><g id="WH"><g id="_2-2" data-name="2"><polygon class="cls-5" points="11.872 4.728 9.461 4.728 9.461 10.091 11.872 18.407 11.872 4.728"/><polygon class="cls-6" points="22.539 4.728 20.128 4.728 20.128 18.407 22.539 10.091 22.539 4.728"/></g><g id="_1-2" data-name="1"><path class="cls-7" d="M11.8719,19.5452l-2.4107-8.316L7.5766,4.7277H5.1537l4.1669,15.37c.0461.03.0939.0594.1406.0891q.35.2223.7256.4512c.6314.3852,1.3155.7839,2.0585,1.1964q.1705.0945.3453.19Z"/><path class="cls-8" d="M24.4347,4.7277l-1.8959,6.54-2.4107,8.3159-.7046,2.43q.1746-.0955.3454-.19c1.0851-.6026,2.047-1.1766,2.8976-1.72L26.835,4.7277Z"/></g></g><g id="Boule"><path class="cls-9" d="M14.34,10.9373c.2659-.2646.3462-.3.4688-.1791.0817.0807.27.0371.4118-.1011.2424-.2371.3329-.2687.5492-.0653a.3512.3512,0,0,0,.4593,0,.239.239,0,0,0,.0767-.1656l0,0v-.0035c0-.0071,0-.0143,0-.0214l0-.0082-.004-.03,0-.0011-.0071-.0282-.0031-.009-.0073-.02-.0047-.01-.0089-.0179-.0058-.01-.0109-.0173-.0066-.01-.0139-.0178-.0063-.0076-.0229-.0239a.3009.3009,0,0,0-.1167-.0679.291.291,0,0,0-.2619.0443.3354.3354,0,0,0-.03.0236c-.0238.0225-.0456.042-.0666.06-.1967.17-.2794.1514-.4215.0183a.1019.1019,0,0,0-.0311-.02l-.0132-.0033a.1267.1267,0,0,0-.0243-.0057c-.0058-.0005-.0122,0-.0183.0005a.1855.1855,0,0,0-.0245.0009l-.0214.005-.0254.0063-.0233.0095-.0264.0111-.0242.0137-.0271.0157-.0244.0175-.0273.02-.0242.0211-.0229.02H14.95l-.0087.0078c-.25.2467-.3319.298-.4167.2155-.0264-.0257-.1553.0776-.2979.22s-.2519.2633-.2206.2959S14.196,11.0808,14.34,10.9373Z"/><path class="cls-10" d="M14.1587,13.8062c.08-.0828.0344-.2749-.1027-.4142a.4357.4357,0,0,0-.2163-.1244v0h-.0014a.2579.2579,0,0,0-.0332-.0038l-.0192-.002a.2051.2051,0,0,0-.0309.0028l-.0168.0017a.1614.1614,0,0,0-.0293.0105l-.012.0044a.1275.1275,0,0,0-.033.0251.1141.1141,0,0,0-.0263.0474.3877.3877,0,0,0,.15.3218l.0055.0057c.2528.2552.2632.3614.212.4146s.0787.1566.2211.299.2648.2511.2969.22-.04-.1917-.1836-.3359C14.0752,14.0126,14.0385,13.9313,14.1587,13.8062Z"/><path class="cls-11" d="M13.9892,12.84a.3523.3523,0,0,0,0-.4593c-.1923-.2056-.1791-.302.0668-.5538.2589-.2651.356-.2836.5493-.084a.3442.3442,0,0,0,.4825-.047c.2732-.2742.3871-.2809.6429-.0309a.3942.3942,0,0,0,.5381,0,.3288.3288,0,0,0,.0958-.1814h0v-.0009a.3452.3452,0,0,0,.0042-.0392v-.01c0-.01,0-.02-.0006-.03l-.0011-.0127-.0041-.0279-.0022-.0118q-.0039-.0179-.01-.0354l-.0009-.003a.3731.3731,0,0,0-.0151-.0373l-.0053-.01-.0142-.0257-.0076-.0119-.0171-.0237-.0079-.01a.3828.3828,0,0,0-.0287-.0312.3689.3689,0,0,0-.0278-.0243.3641.3641,0,0,0-.06-.0388c-.0105-.0054-.0212-.01-.032-.0145a.366.366,0,0,0-.29.01.37.37,0,0,0-.0994.0684l-.0464.0437-.0139.0125c-.1952.1752-.3065.1938-.4642.0668l-.0276-.0235-.0134-.0117c-.0132-.012-.0268-.025-.0408-.0388l-.0026-.0025a.2408.2408,0,0,0-.2121-.06.3967.3967,0,0,0-.084.0239.4906.4906,0,0,0-.1607.1088c-.0456.046-.086.0842-.1229.116-.1325.1143-.2158.1394-.3017.0912a.4229.4229,0,0,1-.0958-.0787c-.07-.0725-.2342-.0063-.3708.1315s-.1932.2959-.1234.3708c.1548.1659.14.26-.08.4926a.2924.2924,0,0,0,0,.4092A.275.275,0,0,0,13.9892,12.84Z"/><path class="cls-12" d="M17.0071,14.4274h0c-.0092.0022-.0188.0059-.0282.0088s-.0191.0052-.0289.009-.0216.01-.0324.0153l-.0262.0125c-.0127.007-.0251.0159-.0376.0243l-.02.0131a.5445.5445,0,0,0-.0549.047c-.1632.16-.26.2207-.3647.19a.2908.2908,0,0,1-.08-.0383l-.0213-.0155-.0118-.0086-.011-.0091c-.0194-.0157-.04-.0333-.061-.0536a.31.31,0,0,0-.0945-.06l-.0118-.0057a.3477.3477,0,0,0-.353.0654c-.2051.1934-.2994.18-.5492-.0653a.529.529,0,0,0-.1132-.0847.3187.3187,0,0,0-.26-.04.12.12,0,0,0-.0385.0244.1051.1051,0,0,0-.03.065l-.0008.0059h0a.2321.2321,0,0,0,.0206.1017.6431.6431,0,0,0,.1417.2l.0051.005v0c.1354.1321.2887.1851.361.1162.1634-.1558.2563-.142.4886.0779a.2966.2966,0,0,0,.4087,0c.2312-.22.3249-.2334.4881-.0779.0735.07.23.0146.3662-.1209s.2081-.2962.1315-.3718A.1969.1969,0,0,0,17.0071,14.4274Z"/><path class="cls-13" d="M18.4149,12.4051c-.1645-.172-.2145-.2689-.1656-.3752l.0091-.0173.0058-.0106.0121-.0182.007-.01.0168-.0212.0067-.0083.0277-.031a.1153.1153,0,0,0,.03-.07.2088.2088,0,0,0-.0074-.0675.3563.3563,0,0,0-.0276-.0749l-.0025-.0041a.6478.6478,0,0,0-.1153-.154.8391.8391,0,0,0-.0787-.07.6274.6274,0,0,0-.053-.0373.4723.4723,0,0,0-.0626-.0333.1518.1518,0,0,0-.1765.0092.122.122,0,0,0-.023.0355l-.0039.0135a.1772.1772,0,0,0-.0083.0313l0,.0016h0a.44.44,0,0,0,.1374.3344c.2457.2525.2213.389.0673.5533a.3136.3136,0,0,0-.0005.4593.2755.2755,0,0,0,.4051-.0253A.29.29,0,0,0,18.4149,12.4051Z"/><path class="cls-14" d="M14.5987,13.83l.01.0175.0016.0023a.4923.4923,0,0,0,.0361.0486c.01.0123.0208.0244.0324.036a.5284.5284,0,0,0,.05.0441l.0066.0053.01.0068.02.0139.0043.0025.0262.0154.0012.0006a.4139.4139,0,0,0,.0921.0364l.0049.001a.3413.3413,0,0,0,.04.0072.3007.3007,0,0,0,.0442.0024h.0021a.2251.2251,0,0,0,.1542-.0633c.225-.2226.3378-.2144.6094.0466a.3679.3679,0,0,0,.51,0,.3445.3445,0,0,0,.0141-.5.3955.3955,0,0,0-.5381,0c-.2564.249-.37.2428-.6429-.03s-.28-.3882-.0313-.6444a.3941.3941,0,0,0,0-.5362.3327.3327,0,0,0-.12-.08h0l-.0033-.001a.3136.3136,0,0,0-.04-.0116l-.01-.0023a.3333.3333,0,0,0-.0444-.0059h-.0032a.3444.3444,0,0,0-.0419.0007l-.0108.001a.3545.3545,0,0,0-.0444.0074l-.0026.0008a.36.36,0,0,0-.0409.0132l-.0107.0042a.3536.3536,0,0,0-.0415.02l-.0017.001a.401.401,0,0,0-.0376.0255l-.01.0075a.3821.3821,0,0,0-.036.0328.3664.3664,0,0,0,0,.5088q.0251.0261.047.05l.0132.015.0277.0318.0139.0175.0207.0264.0124.0175.0162.0239c.0983.1544.0609.26-.1031.4285a.2869.2869,0,0,0-.0151.3407l0,.0006Z"/><path class="cls-15" d="M16.91,11.1586a.6624.6624,0,0,1-.0464.0508.3808.3808,0,0,0-.0446.0533.26.26,0,0,0-.0391.2238l.01.031a.525.525,0,0,0,.1221.178l.0006,0a.4309.4309,0,0,0,.0518.0438l.0153.0105a.4338.4338,0,0,0,.0462.027l.0113.0059a.4116.4116,0,0,0,.0583.0217l.0143.0034a.3768.3768,0,0,0,.0471.0086l.0153.0017a.3433.3433,0,0,0,.0574,0l.0073-.0012a.3188.3188,0,0,0,.0341-.0055l-.0019-.0012a.2509.2509,0,0,0,.1249-.0673.3348.3348,0,0,0-.0733-.4613c-.2693-.27-.2894-.3673-.13-.524.1228-.121.2035-.0846.4688.18.1439.1434.3028.2157.3344.1831s-.0769-.1538-.2206-.2959-.271-.2453-.2974-.22c-.0788.0759-.1586.04-.4172-.2155a.7746.7746,0,0,0-.06-.0527l0,0c-.0133-.0107-.0266-.02-.04-.0294l-.004-.003a.4993.4993,0,0,0-.0479-.0286l-.0147-.0069c-.0108-.0052-.0214-.01-.0319-.014l-.0169-.0054-.0279-.0071L16.799,10.24a.1717.1717,0,0,0-.0257-.0009l-.0147.0008a.1343.1343,0,0,0-.0248.0062l-.0112.0036a.1128.1128,0,0,0-.0309.02c-.0792.0741-.05.2532.0865.3875C17.0121,10.8875,17.0216,11.0216,16.91,11.1586Z"/><path class="cls-16" d="M16.1908,12.2674a.3973.3973,0,0,0-.3037-.0331.3885.3885,0,0,0-.166.0985l-.0005.0006a.3847.3847,0,0,0-.0311.0356l-.0084.0115-.0191.0291-.0069.0117a.3951.3951,0,0,0-.02.0415l-.0007.0021a.3868.3868,0,0,0-.0136.0415l-.0032.0132-.0064.0333-.0018.0129a.4.4,0,0,0-.0028.0451l0,.0041a.4072.4072,0,0,0,.0028.0413l.0019.0134.0067.0336.0016.0082,0-.0009a.3869.3869,0,0,0,.1011.1766.3954.3954,0,0,0,.5568,0c.28-.2818.4007-.2829.6651-.0091a.3446.3446,0,0,0,.4988-.0137.3679.3679,0,0,0,.0952-.1811h.0005l0-.003.0012-.008a.3668.3668,0,0,0,.0051-.0543c0-.0042,0-.0084,0-.0127a.3672.3672,0,0,0-.0056-.0591l-.0026-.0117a.3679.3679,0,0,0-.0153-.0527l-.003-.0084a.3551.3551,0,0,0-.0282-.0548l-.0077-.0118a.3662.3662,0,0,0-.04-.0511.3746.3746,0,0,0-.0854-.0667.3585.3585,0,0,0-.1644-.047.3275.3275,0,0,0-.249.1c-.2645.2736-.3848.2731-.665-.0091A.3864.3864,0,0,0,16.1908,12.2674Z"/><path class="cls-17" d="M18.3665,13.3932a.1321.1321,0,0,0-.001-.019l-.0013-.0079-.0035-.0148-.0026-.0078-.0065-.0139-.0034-.0063-.0137-.018a.1245.1245,0,0,0-.0295-.0223l-.01-.0048a.1568.1568,0,0,0-.0282-.01l-.01-.0027a.2174.2174,0,0,0-.0419-.004l-.0089.0006a.266.266,0,0,0-.0378.0041l-.0146.0029a.3612.3612,0,0,0-.0394.0113l-.01.0034a.4042.4042,0,0,0-.0435.02l.0009,0a.4693.4693,0,0,0-.1184.0877c-.2219.2258-.3252.2717-.4717.1552l-.026-.022-.012-.0106c-.0128-.0119-.0259-.0246-.04-.0387a.3443.3443,0,0,0-.482.0471.3515.3515,0,0,0-.0481.4835.2212.2212,0,0,0,.0229.02l.007.0046.0175.0115.01.0048.0161.0077.0117.004.0158.0051.0128.0026.0158.0031.0136.0012.016.0011c.0047,0,.0095,0,.0143,0l.016-.0007.0146-.0017.0164-.0023.0036-.0006v0a.4608.4608,0,0,0,.2328-.1315c.2685-.2692.3651-.2893.52-.1285.12.125.023.2674-.1811.4724s-.2154.304-.183.3359.1537-.0769.2968-.22.2472-.272.2206-.3c-.0771-.08-.041-.1613.218-.42a.66.66,0,0,0,.12-.16h0l.0028-.006.01-.0209.0039-.01.0066-.0187.0029-.0095.0047-.02.0014-.0071.0026-.0253Z"/></g></g></g></svg>